<svg id="Group_32" data-name="Group 32" xmlns="http://www.w3.org/2000/svg" xmlns:xlink="http://www.w3.org/1999/xlink" width="193" height="38" viewBox="0 0 193 38">
  <defs>
    <clipPath id="clip-path">
      <rect id="Rectangle_76" data-name="Rectangle 76" width="193" height="38" fill="#fff"/>
    </clipPath>
  </defs>
  <rect id="Rectangle_78" data-name="Rectangle 78" width="76" height="33" transform="translate(113 3)" fill="#fff"/>
  <g id="Logo_1" data-name="Logo 1" clip-path="url(#clip-path)">
    <path id="Path_109" data-name="Path 109" d="M378.386,38.907q-1,.069-1.927.069h-2.615V32.13h3.1a16.211,16.211,0,0,1,1.789.1,4.963,4.963,0,0,1,1.686.482,3,3,0,0,1,1.238,1.032,2.957,2.957,0,0,1,.482,1.789,3.011,3.011,0,0,1-.551,1.927,3.131,3.131,0,0,1-1.376,1.032A5.735,5.735,0,0,1,378.386,38.907Z" transform="translate(-253.753 -21.714)" fill="#e53d54"/>
    <path id="Path_110" data-name="Path 110" d="M440.262,73.362h.86v.929a3.765,3.765,0,0,1-1.032,2.787,4.276,4.276,0,0,1-3.131,1,5.252,5.252,0,0,1-1.032-.1A3.1,3.1,0,0,1,435,77.56a2.673,2.673,0,0,1-.688-.654,1.947,1.947,0,0,1-.241-1,1.607,1.607,0,0,1,.654-1.376,4.234,4.234,0,0,1,1.583-.757,9.623,9.623,0,0,1,2.03-.344Q439.4,73.362,440.262,73.362Z" transform="translate(-294.63 -49.702)" fill="#e53d54"/>
    <path id="Path_111" data-name="Path 111" d="M342.955,0a1.776,1.776,0,0,0-1.776,1.776V36.068a1.776,1.776,0,0,0,1.776,1.776h79.59a1.776,1.776,0,0,0,1.776-1.776V1.776A1.776,1.776,0,0,0,422.545,0Zm12.57,6.606h-8.188V30.963h4.335V20.883h3.1a23.74,23.74,0,0,0,3.681-.275,9.152,9.152,0,0,0,3.131-1.032,5.788,5.788,0,0,0,2.133-2.2,7.568,7.568,0,0,0,.792-3.716,6.79,6.79,0,0,0-.757-3.372,5.607,5.607,0,0,0-1.961-2.167,8.148,8.148,0,0,0-2.89-1.17A16.164,16.164,0,0,0,355.526,6.606Zm22.683,22.087h.1v2.271h3.716v-9.5q0-.585-.034-1.342a8.138,8.138,0,0,0-.241-1.617,5.6,5.6,0,0,0-.619-1.617,4.234,4.234,0,0,0-1.2-1.445,6.25,6.25,0,0,0-2-1,9.2,9.2,0,0,0-2.959-.413,12,12,0,0,0-3.819.619,8.021,8.021,0,0,0-3.2,2.03l2.167,2.167a5.949,5.949,0,0,1,1.961-1.239,6.19,6.19,0,0,1,2.443-.482,4.44,4.44,0,0,1,2.718.791,2.637,2.637,0,0,1,1.066,2.305v.447H377.28q-1.032,0-2.2.069a16.185,16.185,0,0,0-2.34.241,11.9,11.9,0,0,0-2.2.55,6.548,6.548,0,0,0-1.892,1.032,4.568,4.568,0,0,0-1.273,1.583,4.886,4.886,0,0,0-.482,2.271,4.391,4.391,0,0,0,.516,2.167,4.857,4.857,0,0,0,1.342,1.548,6.252,6.252,0,0,0,1.926.929,8.224,8.224,0,0,0,2.236.31,7.292,7.292,0,0,0,3.027-.619A5.433,5.433,0,0,0,378.209,28.693Zm17.068-9.667a3.778,3.778,0,0,0-3.234-1.686,3.46,3.46,0,0,0-1.617.413,1.4,1.4,0,0,0-.791,1.342,1.157,1.157,0,0,0,.654,1.1,7.212,7.212,0,0,0,1.651.585l2.133.516a7.652,7.652,0,0,1,2.167.791,4.548,4.548,0,0,1,1.651,1.445,4.359,4.359,0,0,1,.654,2.546,4.6,4.6,0,0,1-.654,2.511,4.845,4.845,0,0,1-1.651,1.617,7.121,7.121,0,0,1-2.27.895,12.017,12.017,0,0,1-2.546.275,10.935,10.935,0,0,1-3.544-.55,6.73,6.73,0,0,1-2.89-2l2.752-2.58a8.384,8.384,0,0,0,1.686,1.479,4.31,4.31,0,0,0,2.236.55,4.434,4.434,0,0,0,.929-.1,3.019,3.019,0,0,0,.894-.344,2.029,2.029,0,0,0,.654-.585,1.426,1.426,0,0,0,.275-.86,1.4,1.4,0,0,0-.654-1.273,5.511,5.511,0,0,0-1.651-.654q-1-.275-2.167-.482a9.35,9.35,0,0,1-2.133-.722,4.677,4.677,0,0,1-1.651-1.411,4.129,4.129,0,0,1-.654-2.477A4.843,4.843,0,0,1,386.057,17a5.11,5.11,0,0,1,1.514-1.686,6.467,6.467,0,0,1,2.133-.963,9.771,9.771,0,0,1,2.443-.31,9.547,9.547,0,0,1,3.269.585,5.239,5.239,0,0,1,2.615,1.927ZM407.33,17.34a3.778,3.778,0,0,1,3.234,1.686l2.752-2.477a5.24,5.24,0,0,0-2.615-1.927,9.545,9.545,0,0,0-3.268-.585,9.771,9.771,0,0,0-2.443.31,6.467,6.467,0,0,0-2.133.963A5.1,5.1,0,0,0,401.344,17a4.839,4.839,0,0,0-.551,2.374,4.127,4.127,0,0,0,.654,2.477,4.674,4.674,0,0,0,1.651,1.411,9.345,9.345,0,0,0,2.133.722q1.169.206,2.167.482a5.515,5.515,0,0,1,1.651.654,1.4,1.4,0,0,1,.653,1.273,1.426,1.426,0,0,1-.275.86,2.029,2.029,0,0,1-.654.585,3.018,3.018,0,0,1-.895.344,4.428,4.428,0,0,1-.929.1,4.311,4.311,0,0,1-2.236-.55,8.4,8.4,0,0,1-1.686-1.479l-2.752,2.58a6.727,6.727,0,0,0,2.89,2,10.935,10.935,0,0,0,3.544.55,12.015,12.015,0,0,0,2.546-.275,7.123,7.123,0,0,0,2.271-.895,4.844,4.844,0,0,0,1.651-1.617,4.6,4.6,0,0,0,.654-2.511,4.357,4.357,0,0,0-.654-2.546,4.548,4.548,0,0,0-1.651-1.445,7.654,7.654,0,0,0-2.168-.791l-2.133-.516a7.209,7.209,0,0,1-1.651-.585,1.157,1.157,0,0,1-.654-1.1,1.4,1.4,0,0,1,.791-1.342A3.458,3.458,0,0,1,407.33,17.34Z" transform="translate(-231.58 0.094)" fill="#e53d54" fill-rule="evenodd"/>
    <path id="Path_112" data-name="Path 112" d="M13.59,24.483a3.884,3.884,0,0,0-1.858-1.445,6.1,6.1,0,0,0-2.408-.482,6.365,6.365,0,0,0-1.479.172,4.2,4.2,0,0,0-1.273.55,2.894,2.894,0,0,0-.895,1,2.735,2.735,0,0,0-.344,1.411,2.232,2.232,0,0,0,.86,1.892,8.456,8.456,0,0,0,2.133,1.135q1.273.482,2.787.929A11.33,11.33,0,0,1,13.9,30.882a6.891,6.891,0,0,1,2.133,2.1,6.236,6.236,0,0,1,.86,3.475,7.751,7.751,0,0,1-.722,3.44A6.935,6.935,0,0,1,14.209,42.3a8.216,8.216,0,0,1-2.821,1.445,11.869,11.869,0,0,1-3.406.482,12.78,12.78,0,0,1-4.369-.757A8.418,8.418,0,0,1,0,40.928l3.268-3.165a5.643,5.643,0,0,0,2.064,1.892,6.075,6.075,0,0,0,2.752.654A5.731,5.731,0,0,0,9.6,40.1a4.682,4.682,0,0,0,1.376-.619,3.294,3.294,0,0,0,1-1.032,2.9,2.9,0,0,0,.378-1.479,2.545,2.545,0,0,0-.86-2.064,7.3,7.3,0,0,0-2.133-1.2q-1.273-.516-2.787-.963a12.178,12.178,0,0,1-2.787-1.2,7.036,7.036,0,0,1-2.133-2.064A6.236,6.236,0,0,1,.791,26a6.682,6.682,0,0,1,.757-3.268,7.168,7.168,0,0,1,2.03-2.271,8.861,8.861,0,0,1,2.89-1.376,12.334,12.334,0,0,1,3.3-.447,11.882,11.882,0,0,1,3.716.585,8.631,8.631,0,0,1,3.268,1.927Z" transform="translate(0 -12.554)"/>
    <path id="Path_113" data-name="Path 113" d="M67.019,53.81a4.194,4.194,0,0,0,1.445,2.89,4.522,4.522,0,0,0,2.993,1.032,4.941,4.941,0,0,0,2.58-.619A7.373,7.373,0,0,0,75.895,55.5l2.959,2.236a8.386,8.386,0,0,1-3.234,2.546,9.526,9.526,0,0,1-3.75.757,9.911,9.911,0,0,1-3.509-.619A8.417,8.417,0,0,1,65.5,58.661a8.6,8.6,0,0,1-1.927-2.718,9.047,9.047,0,0,1-.688-3.578,8.8,8.8,0,0,1,.688-3.544,8.26,8.26,0,0,1,4.782-4.507A9.912,9.912,0,0,1,71.87,43.7,7.707,7.707,0,0,1,75,44.315a6.4,6.4,0,0,1,2.443,1.72,7.663,7.663,0,0,1,1.582,2.821,11.419,11.419,0,0,1,.585,3.819V53.81Zm8.463-3.1a3.828,3.828,0,0,0-1.135-2.855,4.217,4.217,0,0,0-3.062-1.067,4.072,4.072,0,0,0-2.959,1.067,4.81,4.81,0,0,0-1.307,2.855Z" transform="translate(-42.688 -29.565)"/>
    <path id="Path_114" data-name="Path 114" d="M136.5,49.062a6.593,6.593,0,0,0-1.514-1.2,3.249,3.249,0,0,0-1.617-.447,4.79,4.79,0,0,0-2.03.413,5,5,0,0,0-1.548,1.1,5.055,5.055,0,0,0-.963,1.583,5.727,5.727,0,0,0,0,3.716,4.653,4.653,0,0,0,2.511,2.684,4.79,4.79,0,0,0,2.03.413,4.242,4.242,0,0,0,1.789-.378,4.066,4.066,0,0,0,1.411-1.17l2.752,2.959a6.214,6.214,0,0,1-1.445,1.067,9.191,9.191,0,0,1-1.617.722,8.762,8.762,0,0,1-1.583.378,7.456,7.456,0,0,1-1.307.138,9.91,9.91,0,0,1-3.509-.619A8.416,8.416,0,0,1,127,58.661a8.594,8.594,0,0,1-1.926-2.718,9.047,9.047,0,0,1-.688-3.578,8.8,8.8,0,0,1,.688-3.544,8.259,8.259,0,0,1,4.782-4.507,9.911,9.911,0,0,1,3.509-.619,8.632,8.632,0,0,1,3.165.619,7.057,7.057,0,0,1,2.821,1.892Z" transform="translate(-84.43 -29.565)"/>
    <path id="Path_115" data-name="Path 115" d="M193.694,61.494h-3.922V58.845H189.7a5.93,5.93,0,0,1-1.789,2.167,5.365,5.365,0,0,1-3.268.895,6.965,6.965,0,0,1-2.821-.516,5.337,5.337,0,0,1-1.858-1.445,5.79,5.79,0,0,1-1.032-2.1,9.5,9.5,0,0,1-.31-2.443V44.98h4.129v8.36q0,.688.069,1.548a6.1,6.1,0,0,0,.344,1.583,3.436,3.436,0,0,0,.894,1.239,2.741,2.741,0,0,0,1.72.482,3.83,3.83,0,0,0,1.72-.344,3.146,3.146,0,0,0,1.17-.929,3.561,3.561,0,0,0,.688-1.342,5.994,5.994,0,0,0,.206-1.583V44.98h4.129Z" transform="translate(-121.244 -30.437)"/>
    <path id="Path_116" data-name="Path 116" d="M240.123,44.108h4.128v2.615h.069a5.189,5.189,0,0,1,1.961-2.236,5.424,5.424,0,0,1,2.925-.791,3.678,3.678,0,0,1,.722.069q.378.069.757.172v3.991a8.218,8.218,0,0,0-1.032-.206,4.586,4.586,0,0,0-.963-.1,4.416,4.416,0,0,0-2.34.55,4.3,4.3,0,0,0-1.341,1.2,4.556,4.556,0,0,0-.619,1.376,5.788,5.788,0,0,0-.138,1.032v8.842h-4.128Z" transform="translate(-162.987 -29.565)"/>
    <path id="Path_117" data-name="Path 117" d="M281.425,53.81a4.192,4.192,0,0,0,1.445,2.89,4.521,4.521,0,0,0,2.993,1.032,4.942,4.942,0,0,0,2.58-.619A7.375,7.375,0,0,0,290.3,55.5l2.959,2.236a8.382,8.382,0,0,1-3.234,2.546,9.528,9.528,0,0,1-3.75.757,9.913,9.913,0,0,1-3.509-.619,8.417,8.417,0,0,1-2.855-1.755,8.594,8.594,0,0,1-1.926-2.718,9.048,9.048,0,0,1-.688-3.578,8.8,8.8,0,0,1,.688-3.544,8.259,8.259,0,0,1,4.782-4.507,9.914,9.914,0,0,1,3.509-.619,7.706,7.706,0,0,1,3.131.619,6.394,6.394,0,0,1,2.443,1.72,7.663,7.663,0,0,1,1.583,2.821,11.419,11.419,0,0,1,.585,3.819V53.81Zm8.463-3.1a3.83,3.83,0,0,0-1.135-2.855,4.217,4.217,0,0,0-3.062-1.067,4.072,4.072,0,0,0-2.959,1.067,4.809,4.809,0,0,0-1.307,2.855Z" transform="translate(-188.219 -29.565)"/>
  </g>
</svg>
